<?xml version="1.0" encoding="utf-8"?>
<!-- Generator: Adobe Illustrator 23.0.2, SVG Export Plug-In . SVG Version: 6.00 Build 0)  -->
<svg version="1.1" id="Camada_1" xmlns="http://www.w3.org/2000/svg" xmlns:xlink="http://www.w3.org/1999/xlink" x="0px" y="0px"
	 viewBox="0 0 255.09 238.56" style="enable-background:new 0 0 255.09 238.56;" xml:space="preserve">
<g>
	<path d="M94.3,30.6L72.62,98.85l-9.85,30.98c-2.71,8.55-6.11,14.4-10.17,17.53c-4.06,3.14-9.33,3.68-15.79,1.63
		c-4.18-1.33-8.6-3.43-13.26-6.31l-7.79,24.51c4.5,2.96,10.07,5.5,16.72,7.62c11.26,3.58,21.2,3.92,29.81,1.01
		c2.48-0.83,4.85-1.93,7.11-3.3c5.6-3.4,10.44-8.34,14.51-14.84c3.28-5.23,6.07-11.46,8.37-18.68l6.57-20.67l9.57-30.11
		c-4.16-2.76-7.02-4.99-8.6-6.68c-2.85-2.97-4.26-6.22-4.24-9.78c0.01-1.47,0.26-2.98,0.76-4.54c1.85-5.83,5.76-9.58,11.72-11.27
		c3.28-0.92,6.9-1.2,10.87-0.81l0.94-2.97l7.43-23.37C114.65,26.37,103.65,26.97,94.3,30.6z"/>
</g>
<g>
	<path d="M164.32,127.55c-3.39-5-8.73-10.01-16.04-15.01c-1.99-1.37-4.13-2.74-6.42-4.1l-20.75-12.42l-9.44,29.69l3.9,2.25
		c8.85,5.05,15.04,9.59,18.58,13.62c1.52,1.77,2.57,3.63,3.13,5.57c0.74,2.53,0.67,5.2-0.22,8c-1.07,3.35-2.71,6.07-4.91,8.14
		c-3.35,3.16-8.02,4.82-14.01,4.99c-5.17,0.13-11.49-0.98-18.94-3.34l-8.1,25.51c0.34,0.12,0.68,0.23,1.02,0.34
		c10.85,3.45,20.78,5.03,29.79,4.74c7.01-0.22,13.48-1.57,19.37-4.06c13.46-5.69,22.36-15.37,26.71-29.06
		C172.23,149.06,171.01,137.44,164.32,127.55z M75.26,147.16c-1.76-4.29-2.04-10.01-0.83-17.17l-10.45-3.32l-4.47,14.08
		c-2.16,6.78-4.31,11.39-6.46,13.85c-1.65,1.89-3.6,3.14-5.85,3.73c0.79,1.45,1.66,2.89,2.62,4.3c3.25,4.8,7.32,9.14,12.24,13.01
		c2.48-0.83,4.85-1.93,7.11-3.3c5.6-3.4,10.44-8.34,14.51-14.84C79.69,154.53,76.88,151.08,75.26,147.16z M183.63,72.32
		c-1.36-5.29-3.72-10.26-7.08-14.92c-8.63-11.95-20.93-20.47-36.92-25.55c-4.35-1.38-8.54-2.46-12.56-3.23
		c-12.65-2.43-23.65-1.83-33,1.8c-0.75,0.29-1.48,0.59-2.2,0.92c-12.7,5.74-21.18,15.31-25.45,28.73
		c-4.67,14.71-3.05,27.12,4.85,37.24c0.34,0.45,0.72,0.9,1.12,1.36c0.12,0.14,0.24,0.27,0.36,0.41c4.84,5.4,13.46,11.77,25.87,19.07
		c0.08,0.04,0.16,0.09,0.24,0.14l9.56-30.09c-0.08-0.05-0.16-0.1-0.23-0.16c-4.16-2.76-7.02-4.99-8.6-6.68
		c-2.85-2.97-4.26-6.22-4.24-9.78c0.01-1.47,0.26-2.98,0.76-4.54c1.85-5.83,5.76-9.58,11.72-11.27c3.28-0.92,6.9-1.2,10.87-0.81
		c0.09,0,0.18,0.01,0.27,0.02c3.18,0.32,6.59,1.05,10.22,2.2c7.43,2.36,13.25,5.6,17.46,9.69c6.29,6.18,8.29,13.87,5.98,23.06
		l2.58,0.82l27.51,8.74c0.01-0.05,0.03-0.09,0.04-0.14C185.48,89.58,185.77,80.57,183.63,72.32z"/>
</g>
<g>
	<path d="M237.27,145.05c-3.39-5-8.73-10.01-16.04-15.01c-1.99-1.37-4.13-2.74-6.42-4.1l-20.75-12.42l-9.44,29.69l3.9,2.25
		c8.85,5.05,15.04,9.59,18.58,13.62c1.52,1.77,2.57,3.63,3.13,5.57c0.74,2.53,0.67,5.2-0.22,8c-1.07,3.35-2.71,6.07-4.91,8.14
		c-3.35,3.16-8.02,4.82-14.01,4.99c-5.17,0.13-11.49-0.98-18.94-3.34l-8.1,25.51c0.34,0.12,0.68,0.23,1.02,0.34
		c10.85,3.45,20.78,5.03,29.79,4.74c7.01-0.22,13.48-1.57,19.37-4.06c13.46-5.69,22.36-15.37,26.71-29.06
		C245.18,166.56,243.96,154.94,237.27,145.05z"/>
</g>
<g>
	<path d="M141.86,108.44l-20.75-12.42l-9.44,29.69l3.9,2.25c8.85,5.05,15.04,9.59,18.58,13.62c1.52,1.77,2.57,3.63,3.13,5.57
		l11-34.61C146.29,111.17,144.15,109.8,141.86,108.44z M183.63,72.32l-63.99-20.33l-28.05-8.91l-0.01,0.02l-7.87,24.78l11.64,3.7
		c0.01-1.47,0.26-2.98,0.76-4.54c1.85-5.83,5.76-9.58,11.72-11.27c3.28-0.92,6.9-1.2,10.87-0.81c0.09,0,0.18,0.01,0.27,0.02
		c3.18,0.32,6.59,1.05,10.22,2.2c7.43,2.36,13.25,5.6,17.46,9.69c6.29,6.18,8.29,13.87,5.98,23.06l2.58,0.82l0.04-0.14l27.51,8.74
		C185.48,89.58,185.77,80.57,183.63,72.32z M118.14,168.28c-5.17,0.13-11.49-0.98-18.94-3.34l-8.1,25.51
		c0.34,0.12,0.68,0.23,1.02,0.34c10.85,3.45,20.78,5.03,29.79,4.74l10.24-32.24C128.8,166.45,124.13,168.11,118.14,168.28z"/>
</g>
</svg>
